<svg width="180" height="180" viewBox="0 0 180 180" fill="none" xmlns="http://www.w3.org/2000/svg">
<path fill-rule="evenodd" clip-rule="evenodd" d="M170 90C170 104.368 167.007 117.95 161.684 130H95.0002C107.313 111.141 120 88.3032 120 65C120 35.0118 99.6923 9.76677 72.0789 2.26696C77.8403 0.783558 83.8389 0 90.0002 0C134.183 0 170 40.2944 170 90ZM100 65C100 40.1472 79.8528 20 55 20C21.7467 20 10 62.5355 10 90C10 139.706 45.8172 180 90 180C113.693 180 134.981 168.412 149.63 150H55C56.7591 147.757 58.6012 145.446 60.4935 143.071C78.0783 121.006 100 93.4987 100 65Z" fill="#7859CF"/>
</svg>
